<svg width="448" height="512" viewBox="0 0 448 512" fill="none" xmlns="http://www.w3.org/2000/svg">
<path d="M360.2 83.8C335.8 59.4 296.2 59.4 271.8 83.8L87.8002 267.8C45.7002 309.9 45.7002 378.1 87.8002 420.2C129.9 462.3 198.1 462.3 240.2 420.2L392.2 268.2C403.1 257.3 420.9 257.3 431.8 268.2C442.7 279.1 442.7 296.9 431.8 307.8L279.8 459.8C215.8 523.8 112.2 523.8 48.2002 459.8C-15.7998 395.8 -15.7998 292.2 48.2002 228.2L232.2 44.2C278.5 -2.09999 353.5 -2.09999 399.8 44.2C446.1 90.5 446.1 165.5 399.8 211.8L223.8 387.8C195.2 416.4 148.8 416.4 120.2 387.8C91.6002 359.2 91.6002 312.8 120.2 284.2L264.2 140.2C275.1 129.3 292.9 129.3 303.8 140.2C314.7 151.1 314.7 168.9 303.8 179.8L159.8 323.8C153.1 330.5 153.1 341.5 159.8 348.2C166.5 354.9 177.5 354.9 184.2 348.2L360.2 172.2C384.6 147.8 384.6 108.2 360.2 83.8Z" fill="#9B9A9C"/>
</svg>
