<svg width="512" height="448" viewBox="0 0 512 448" fill="none" xmlns="http://www.w3.org/2000/svg">
<path d="M512 208C512 322.9 397.4 416 256 416C218.9 416 183.7 409.6 151.9 398.1C140 406.8 120.6 418.7 97.6 428.7C73.6 439.1 44.7 448 16 448C9.49999 448 3.69999 444.1 1.19999 438.1C-1.30001 432.1 0.0999918 425.3 4.59999 420.7L4.89999 420.4C5.19999 420.1 5.59999 419.7 6.19999 419C7.29999 417.8 8.99999 415.9 11.1 413.3C15.2 408.3 20.7 400.9 26.3 391.7C36.3 375.1 45.8 353.3 47.7 328.8C17.7 294.8 -7.98516e-06 253.1 -7.98516e-06 208C-7.98516e-06 93.1 114.6 0 256 0C397.4 0 512 93.1 512 208Z" fill="#D9281B"/>
</svg>
