<svg width="448" height="512" viewBox="0 0 448 512" fill="none" xmlns="http://www.w3.org/2000/svg">
<path d="M0 256C0 241.148 5.89998 226.904 16.402 216.402C26.9041 205.9 41.1479 200 56 200C70.8521 200 85.0959 205.9 95.598 216.402C106.1 226.904 112 241.148 112 256C112 270.852 106.1 285.096 95.598 295.598C85.0959 306.1 70.8521 312 56 312C41.1479 312 26.9041 306.1 16.402 295.598C5.89998 285.096 0 270.852 0 256ZM160 256C160 241.148 165.9 226.904 176.402 216.402C186.904 205.9 201.148 200 216 200C230.852 200 245.096 205.9 255.598 216.402C266.1 226.904 272 241.148 272 256C272 270.852 266.1 285.096 255.598 295.598C245.096 306.1 230.852 312 216 312C201.148 312 186.904 306.1 176.402 295.598C165.9 285.096 160 270.852 160 256ZM376 200C390.852 200 405.096 205.9 415.598 216.402C426.1 226.904 432 241.148 432 256C432 270.852 426.1 285.096 415.598 295.598C405.096 306.1 390.852 312 376 312C361.148 312 346.904 306.1 336.402 295.598C325.9 285.096 320 270.852 320 256C320 241.148 325.9 226.904 336.402 216.402C346.904 205.9 361.148 200 376 200Z" fill="#9B9A9C"/>
</svg>
