<svg width="496" height="496" viewBox="0 0 496 496" fill="none" xmlns="http://www.w3.org/2000/svg">
<g clip-path="url(#clip0_209_6)">
<path d="M496 249.509C496 111.675 385 0 248 0C111 0 0 111.675 0 249.509C0 374.042 90.69 477.267 209.25 496V321.635H146.25V249.509H209.25V194.537C209.25 132.008 246.25 97.4695 302.92 97.4695C330.06 97.4695 358.44 102.339 358.44 102.339V163.71H327.16C296.36 163.71 286.75 182.947 286.75 202.676V249.509H355.53L344.53 321.635H286.75V496C405.31 477.267 496 374.042 496 249.509Z" fill="#9B9A9C"/>
</g>
<defs>
<clipPath id="clip0_209_6">
<rect width="496" height="496" fill="white"/>
</clipPath>
</defs>
</svg>
