<svg width="576" height="470" viewBox="0 0 576 470" fill="none" xmlns="http://www.w3.org/2000/svg">
<path d="M47.6 258.4L228.3 427.1C235.8 434.1 245.7 438 256 438C266.3 438 276.2 434.1 283.7 427.1L286.3 424.7C267.2 396.6 256 362.6 256 326C256 228.8 334.8 150 432 150C460.3 150 487 156.7 510.7 168.5C511.6 162 512 155.5 512 148.9V143.1C512 73.2 461.5 13.6 392.6 2.09998C347 -5.50002 300.6 9.39999 268 42L256 54L244 42C211.4 9.39999 165 -5.50002 119.4 2.09998C50.5 13.6 0 73.2 0 143.1V148.9C0 190.4 17.2 230.1 47.6 258.4ZM576 326C576 246.5 511.5 182 432 182C352.5 182 288 246.5 288 326C288 405.5 352.5 470 432 470C511.5 470 576 405.5 576 326ZM512 326C512 334.8 504.8 342 496 342H368C359.2 342 352 334.8 352 326C352 317.2 359.2 310 368 310H496C504.8 310 512 317.2 512 326Z" fill="#D9281B"/>
</svg>
