<svg width="576" height="470" viewBox="0 0 576 470" fill="none" xmlns="http://www.w3.org/2000/svg">
<path d="M47.6 258.4L228.3 427.1C235.8 434.1 245.7 438 256 438C266.3 438 276.2 434.1 283.7 427.1L286.3 424.7C267.2 396.6 256 362.6 256 326C256 228.8 334.8 150 432 150C460.3 150 487 156.7 510.7 168.5C511.6 162 512 155.5 512 148.9V143.1C512 73.2 461.5 13.6 392.6 2.09998C347 -5.50002 300.6 9.39999 268 42L256 54L244 42C211.4 9.39999 165 -5.50002 119.4 2.09998C50.5 13.6 0 73.2 0 143.1V148.9C0 190.4 17.2 230.1 47.6 258.4ZM432 470C511.5 470 576 405.5 576 326C576 246.5 511.5 182 432 182C352.5 182 288 246.5 288 326C288 405.5 352.5 470 432 470ZM448 262V310H496C504.8 310 512 317.2 512 326C512 334.8 504.8 342 496 342H448V390C448 398.8 440.8 406 432 406C423.2 406 416 398.8 416 390V342H368C359.2 342 352 334.8 352 326C352 317.2 359.2 310 368 310H416V262C416 253.2 423.2 246 432 246C440.8 246 448 253.2 448 262Z" fill="#9B9A9C"/>
</svg>
