<svg width="512" height="512" viewBox="0 0 512 512" fill="none" xmlns="http://www.w3.org/2000/svg">
<path d="M0 96C0 60.7 28.7 32 64 32H448C483.3 32 512 60.7 512 96V416C512 451.3 483.3 480 448 480H64C28.7 480 0 451.3 0 416V96ZM323.8 202.5C319.3 195.9 311.9 192 304 192C296.1 192 288.6 195.9 284.2 202.5L197.2 330.1L170.7 297C166.1 291.3 159.2 288 152 288C144.8 288 137.8 291.3 133.3 297L69.3 377C63.5 384.2 62.4 394.1 66.4 402.4C70.4 410.7 78.8 416 88 416H184H216H424C432.9 416 441.1 411.1 445.2 403.2C449.3 395.3 448.8 385.8 443.8 378.5L323.8 202.5ZM112 192C124.73 192 136.939 186.943 145.941 177.941C154.943 168.939 160 156.73 160 144C160 131.27 154.943 119.061 145.941 110.059C136.939 101.057 124.73 96 112 96C99.2696 96 87.0606 101.057 78.0589 110.059C69.0571 119.061 64 131.27 64 144C64 156.73 69.0571 168.939 78.0589 177.941C87.0606 186.943 99.2696 192 112 192Z" fill="#D9281B"/>
</svg>
