<svg width="342" height="512" viewBox="0 0 342 512" fill="none" xmlns="http://www.w3.org/2000/svg">
<path d="M170.958 0C119.477 0 77.7083 43 77.7083 96V256C77.7083 309 119.477 352 170.958 352C222.44 352 264.208 309 264.208 256V96C264.208 43 222.44 0 170.958 0ZM46.625 216C46.625 202.7 36.2315 192 23.3125 192C10.3935 192 0 202.7 0 216V256C0 345.1 64.3036 418.7 147.646 430.4V464H101.021C88.1018 464 77.7083 474.7 77.7083 488C77.7083 501.3 88.1018 512 101.021 512H170.958H240.896C253.815 512 264.208 501.3 264.208 488C264.208 474.7 253.815 464 240.896 464H194.271V430.4C277.613 418.7 341.917 345.1 341.917 256V216C341.917 202.7 331.523 192 318.604 192C305.685 192 295.292 202.7 295.292 216V256C295.292 326.7 239.633 384 170.958 384C102.284 384 46.625 326.7 46.625 256V216Z" fill="#9B9A9C"/>
</svg>
