<svg width="800" height="800" viewBox="0 0 800 800" fill="none" xmlns="http://www.w3.org/2000/svg">
<path d="M344.307 174.211C507.426 197.177 576.587 142.271 593.815 341.587C665.511 336.416 683.088 408.293 667.7 465.623C678.372 487.976 681.049 516.848 659.556 534.671C614.217 550.831 635.893 524.387 622.985 590.593C619.124 608.062 608.057 629.154 586.824 625.923C556.602 625.356 526.912 613.458 534.027 577.783C535.768 565.116 536.101 552.252 537.091 539.225C438.599 539.225 340.527 539.225 241.146 539.225C240.336 558.378 243.963 579.37 237.534 598.172C230.538 622.302 204.89 624.587 183.716 620.148C140.832 614.256 151.3 567.432 152.642 536.066C120.067 541.775 100.622 494.245 122.751 471.377C129.697 468.087 109.101 447.344 110.216 435.467C97.3349 381.757 122.362 332.131 183.278 337.497C186.38 337.405 187.916 336.513 188.787 333.311C220.514 238.813 224.825 169.676 344.307 174.211ZM240.053 336.064C240.8 301.187 282.769 281.871 313.564 292.031C359.722 302.939 349.65 332.128 367.231 338.689C430.73 338.422 494.355 341.308 557.752 340.641C548.614 308.779 549.843 230.592 509.079 226.187C438.164 219.01 366.007 206.352 294.844 215.348C248.732 225.386 243.953 286.555 225.561 322.635C215.244 340.447 224.585 335.538 240.053 336.064ZM145.581 497.199C295.338 506.789 445.369 498.068 595.199 505.115C605.279 503.028 646.894 512.213 643.469 497.713C643.71 494.703 643.711 491 638.988 490.691C547.827 482.889 456.227 489.036 364.939 481.969C330.953 482.56 148.237 467.973 145.581 497.199ZM604.069 413.265C603.852 382.65 563.025 391.583 559.151 415.77C553.559 452.712 606.582 445.967 604.069 413.265ZM568.059 540.398C567.256 554.732 566.444 569.383 565.608 584.033C566.31 593.757 580.377 589.994 587.488 592.699C593.857 575.837 594.186 558.518 593.682 540.398C584.966 540.398 576.732 540.398 568.059 540.398ZM205.742 445.556C223.335 434.269 222.758 387.031 194.513 403.161C175.287 419.932 183.157 438.067 205.742 445.556ZM185.879 536.442C185.879 548.087 185.776 559.547 185.904 571.003C186.083 586.988 185.842 584.811 199.257 586.272C203.247 586.706 205.085 585.786 205.102 581.933C205.167 566.916 205.128 551.898 205.128 536.442C199.7 536.442 193.723 536.442 185.879 536.442ZM276.896 336.742C293.587 336.742 309.859 336.742 326.328 336.742C313.87 319.751 286.172 319.459 276.896 336.742Z" fill="white"/>
<path d="M766.499 285.266C753.856 312.529 731.571 334.226 714.665 358.956C709.52 366.841 698.77 370.534 691.024 365.133C666.344 345.199 723.653 299.06 733.297 277.724C742.56 263.346 764.862 266.426 766.499 285.266Z" fill="white"/>
<path d="M163.969 295.223C165.397 317.562 137.859 321.8 132.45 301.172C130.824 276.607 95.8097 222.494 126.457 209.437C159.156 203.455 155.887 273.45 163.969 295.223Z" fill="white"/>
<path d="M52.0993 313.503C66.3426 319.088 99.0163 342.041 92.2447 359.594C77.8309 388 51.3809 352.981 37.4501 341.192C28.2926 331.065 38.8101 314.095 52.0993 313.503Z" fill="white"/>
<path d="M658.375 279.031C654.482 293.161 660.124 323.055 639.235 322.884C620.043 319.77 626.831 291.411 624.638 277.114C624.944 252.768 660.178 254.915 658.375 279.031Z" fill="white"/>
<path d="M240.053 336.065C225.06 335.401 214.894 340.658 225.567 322.639C243.888 286.569 248.781 225.379 294.84 215.35C366.007 206.35 438.162 219.013 509.075 226.185C549.971 230.668 548.515 308.694 557.756 340.638C494.355 341.309 430.73 338.423 367.235 338.686C349.831 332.33 359.473 302.737 313.564 292.035C282.737 281.872 240.821 301.188 240.053 336.065Z" fill="#756EFF"/>
<path d="M145.579 497.201C147.931 467.981 331.312 482.561 364.935 481.964C456.226 489.038 547.825 482.89 638.986 490.692C643.708 491.002 643.708 494.705 643.467 497.712C647.133 512.259 604.612 503 595.198 505.123C445.368 498.069 295.336 506.792 145.579 497.201Z" fill="#756EFF"/>
<path d="M604.068 413.266C606.573 445.98 553.554 452.702 559.147 415.769C563.02 391.582 603.852 382.652 604.068 413.266Z" fill="#756EFF"/>
<path d="M568.06 540.4C576.733 540.4 584.966 540.4 593.683 540.4C594.187 558.52 593.858 575.839 587.491 592.7C580.382 590.017 566.311 593.741 565.608 584.036C566.445 569.385 567.257 554.734 568.06 540.4Z" fill="#756EFF"/>
<path d="M185.879 536.442C193.723 536.442 199.7 536.442 205.127 536.442C205.127 551.898 205.166 566.916 205.101 581.933C205.084 585.787 203.246 586.707 199.256 586.272C185.841 584.811 186.082 586.988 185.903 571.003C185.776 559.547 185.879 548.089 185.879 536.442Z" fill="#756EFF"/>
<path d="M276.894 336.744C286.17 319.461 313.868 319.752 326.326 336.744C309.857 336.744 293.585 336.744 276.894 336.744Z" fill="#756EFF"/>
<path d="M224.546 417.27C227.051 449.984 174.032 456.705 179.626 419.773C183.498 395.586 224.331 386.656 224.546 417.27Z" fill="#756EFF"/>
</svg>
