<svg width="800" height="800" viewBox="0 0 800 800" fill="none" xmlns="http://www.w3.org/2000/svg">
<path d="M742.857 314.286H57.1429H42.8571V314.286C19.1878 314.286 0 333.474 0 357.143V735.715C0 763.329 22.3858 785.715 50 785.715H264.286C291.9 785.715 314.286 763.329 314.286 735.715V570.143C314.286 539.343 339.343 514.286 370.143 514.286H429.857C460.657 514.286 485.714 539.343 485.714 570.143V735.715C485.714 763.329 508.1 785.715 535.714 785.715H750C777.614 785.715 800 763.329 800 735.715V364.286C800 336.672 777.614 314.286 750 314.286H742.857ZM214.286 592.858C214.286 620.472 191.9 642.858 164.286 642.858H150C122.386 642.858 100 620.472 100 592.858V578.572C100 550.958 122.386 528.572 150 528.572H164.286C191.9 528.572 214.286 550.958 214.286 578.572V592.858ZM700 592.858C700 620.472 677.614 642.858 650 642.858H635.714C608.1 642.858 585.714 620.472 585.714 592.858V578.572C585.714 550.958 608.1 528.572 635.714 528.572H650C677.614 528.572 700 550.958 700 578.572V592.858Z" fill="white"/>
<path d="M742.857 44.2861C742.857 27.7176 729.425 14.2861 712.857 14.2861H600C584.221 14.2861 571.429 27.078 571.429 42.8576V42.8576C571.429 58.6372 558.637 71.429 542.857 71.429H514.285C498.506 71.429 485.714 58.6372 485.714 42.8576V42.8576C485.714 27.078 472.922 14.2861 457.143 14.2861H342.857C327.078 14.2861 314.286 27.078 314.286 42.8576V42.8576C314.286 58.6372 301.494 71.429 285.715 71.429H257.143C241.364 71.429 228.572 58.6372 228.572 42.8576V42.8576C228.572 27.078 215.78 14.2861 200.001 14.2861H87.1431C70.5746 14.2861 57.1431 27.7176 57.1431 44.2861V255.715C57.1431 272.284 70.5745 285.715 87.1431 285.715H712.857C729.426 285.715 742.857 272.284 742.857 255.715V44.2861ZM328.572 227.143C328.572 243.712 315.141 257.143 298.572 257.143H244.286C227.717 257.143 214.286 243.712 214.286 227.143V172.858C214.286 156.29 227.717 142.858 244.286 142.858H298.572C315.14 142.858 328.572 156.289 328.572 172.858V227.143ZM585.714 227.143C585.714 243.712 572.282 257.143 555.714 257.143H501.429C484.86 257.143 471.429 243.712 471.429 227.143V172.858C471.429 156.29 484.86 142.858 501.429 142.858H555.714C572.282 142.858 585.714 156.289 585.714 172.858V227.143Z" fill="white"/>
</svg>
