<svg width="994" height="332" viewBox="0 0 994 332" fill="none" xmlns="http://www.w3.org/2000/svg">
<g clip-path="url(#clip0_301_2)">
<path d="M607.65 332H386.35C380.091 332 375 328.007 375 323.1V9.89981C375 4.99273 380.091 1 386.35 1H607.65C613.909 1 619 4.99273 619 9.89981V323.1C619 328.007 613.909 332 607.65 332ZM472.846 2.48621C419.854 2.48621 376.895 36.1718 376.895 77.7252V323.1C376.895 327.195 381.128 330.514 386.35 330.514H607.65C612.872 330.514 617.105 327.195 617.105 323.1V9.89981C617.105 5.80539 612.872 2.4862 607.65 2.4862L472.846 2.48621Z" fill="#E6E6E6"/>
<path d="M618.244 15.3092C618.244 15.986 619.003 16.5295 619.948 16.5295H912.471C913.416 16.5295 914.175 15.986 914.175 15.3092C914.175 14.6324 913.416 14.0889 912.471 14.0889H619.948C619.003 14.0889 618.244 14.6324 618.244 15.3092Z" fill="#E6E6E6"/>
<path d="M380.339 189.582L383.234 266.301H376.188V274.986H395.883V266.301H390.138L390.548 189.582H380.339Z" fill="#3F3D56"/>
<path d="M372.739 253.997C375.737 253.997 378.168 256.427 378.168 259.425V281.862C378.168 284.86 375.737 287.29 372.739 287.29C369.741 287.29 367.311 284.86 367.311 281.862V259.425C367.311 256.427 369.741 253.997 372.739 253.997Z" fill="#3F3D56"/>
<path d="M400.242 253.997C403.24 253.997 405.671 256.427 405.671 259.425V281.862C405.671 284.86 403.24 287.29 400.242 287.29C397.244 287.29 394.814 284.86 394.814 281.862V259.425C394.814 256.427 397.244 253.997 400.242 253.997Z" fill="#3F3D56"/>
<path d="M444.392 141.781L332.932 136.715L350.303 128.754L448.011 130.201L444.392 141.781Z" fill="#E7473C"/>
<path d="M0 153.032L13.4609 147.965L431.364 158.822L448.735 150.86L441.497 200.076L109.538 164.704L0 153.032Z" fill="#E7473C"/>
<path d="M107.479 181.62L109.538 164.704L441.497 200.076L439.688 225.046L107.479 181.62Z" fill="#3F3D56"/>
<path d="M330.761 231.56C349.748 231.56 365.14 215.196 365.14 195.01C365.14 174.824 349.748 158.46 330.761 158.46C311.774 158.46 296.382 174.824 296.382 195.01C296.382 215.196 311.774 231.56 330.761 231.56Z" fill="#3F3D56"/>
<path d="M330.761 213.828C344.751 213.828 356.093 202.486 356.093 188.496C356.093 174.506 344.751 163.164 330.761 163.164C316.771 163.164 305.429 174.506 305.429 188.496C305.429 202.486 316.771 213.828 330.761 213.828Z" fill="#E7473C"/>
<path d="M613.391 189.582L610.496 266.301H617.543V274.986H597.848V266.301H603.592L603.182 189.582H613.391Z" fill="#3F3D56"/>
<path d="M620.991 253.997C617.993 253.997 615.562 256.427 615.562 259.425V281.862C615.562 284.86 617.993 287.29 620.991 287.29C623.989 287.29 626.419 284.86 626.419 281.862V259.425C626.419 256.427 623.989 253.997 620.991 253.997Z" fill="#3F3D56"/>
<path d="M593.488 253.997C590.49 253.997 588.06 256.427 588.06 259.425V281.862C588.06 284.86 590.49 287.29 593.488 287.29C596.486 287.29 598.916 284.86 598.916 281.862V259.425C598.916 256.427 596.486 253.997 593.488 253.997Z" fill="#3F3D56"/>
<path d="M549.338 141.781L660.798 136.715L643.428 128.754L545.719 130.201L549.338 141.781Z" fill="#E7473C"/>
<path d="M509.444 126.188L504.378 14.728L496.416 32.0984L497.864 129.807L509.444 126.188Z" fill="#E7473C"/>
<path d="M993.73 153.032L980.269 147.965L562.366 158.822L544.996 150.86L552.233 200.076L884.192 164.704L993.73 153.032Z" fill="#E7473C"/>
<path d="M886.251 181.62L884.192 164.704L552.233 200.076L554.043 225.046L886.251 181.62Z" fill="#3F3D56"/>
<path d="M662.969 231.56C681.956 231.56 697.348 215.196 697.348 195.01C697.348 174.824 681.956 158.46 662.969 158.46C643.982 158.46 628.591 174.824 628.591 195.01C628.591 215.196 643.982 231.56 662.969 231.56Z" fill="#3F3D56"/>
<path d="M662.969 213.828C676.96 213.828 688.301 202.486 688.301 188.496C688.301 174.506 676.96 163.164 662.969 163.164C648.979 163.164 637.638 174.506 637.638 188.496C637.638 202.486 648.979 213.828 662.969 213.828Z" fill="#E7473C"/>
<path d="M560.014 127.897L558.371 140.004L557.518 205.172C557.453 210.021 556.866 214.812 555.766 219.459C552.596 232.993 545.191 245.304 534.255 254.229C524.332 262.335 510.798 268.472 492.884 267.387C445.116 264.492 440.896 223.838 440.896 223.838L442.699 150.115L442.945 140.004L445.116 121.76C445.116 121.76 450.906 70.3726 504.465 71.8201C558.023 73.2676 560.014 127.897 560.014 127.897Z" fill="#E7473C"/>
<path d="M456.696 110.903L467.553 93.533L481.304 89.1904H528.349L539.929 93.533L550.438 110.903L531.244 102.218H477.4L456.696 110.903Z" fill="#E6E6E6"/>
<path d="M496.509 235.785L498.366 285.001H493.846V290.573H506.48V285.001H502.795L503.058 235.785H496.509Z" fill="#3F3D56"/>
<path d="M491.634 277.108C493.557 277.108 495.116 278.667 495.116 280.59V294.984C495.116 296.907 493.557 298.466 491.634 298.466C489.71 298.466 488.151 296.907 488.151 294.984V280.59C488.151 278.667 489.71 277.108 491.634 277.108Z" fill="#3F3D56"/>
<path d="M509.277 277.108C511.2 277.108 512.759 278.667 512.759 280.59V294.984C512.759 296.907 511.2 298.466 509.277 298.466C507.354 298.466 505.795 296.907 505.795 294.984V280.59C505.795 278.667 507.354 277.108 509.277 277.108Z" fill="#3F3D56"/>
<path d="M483.036 78.5225L473.037 114.523L474.964 115.058L484.963 79.0577L483.036 78.5225Z" fill="#E7473C"/>
<path d="M528.379 84.2661L526.416 84.6519L533.621 121.314L535.583 120.928L528.379 84.2661Z" fill="#E7473C"/>
<path d="M734.416 26.7535C741.596 26.7535 747.416 20.9332 747.416 13.7535C747.416 6.57372 741.596 0.753418 734.416 0.753418C727.237 0.753418 721.416 6.57372 721.416 13.7535C721.416 20.9332 727.237 26.7535 734.416 26.7535Z" fill="#E7473C"/>
<path d="M374.602 69.3061C381.782 69.3061 387.602 63.4859 387.602 56.3062C387.602 49.1265 381.782 43.3062 374.602 43.3062C367.422 43.3062 361.602 49.1265 361.602 56.3062C361.602 63.4859 367.422 69.3061 374.602 69.3061Z" fill="#E7473C"/>
<path d="M80.2441 300.309C80.2441 300.986 81.0031 301.53 81.9482 301.53H374.471C375.416 301.53 376.175 300.986 376.175 300.309C376.175 299.633 375.416 299.089 374.471 299.089H81.9482C81.0031 299.089 80.2441 299.633 80.2441 300.309Z" fill="#E6E6E6"/>
<path d="M196.416 311.754C203.596 311.754 209.416 305.933 209.416 298.754C209.416 291.574 203.596 285.754 196.416 285.754C189.237 285.754 183.416 291.574 183.416 298.754C183.416 305.933 189.237 311.754 196.416 311.754Z" fill="#E7473C"/>
</g>
<defs>
<clipPath id="clip0_301_2">
<rect width="994" height="332" fill="white"/>
</clipPath>
</defs>
</svg>
