<svg width="666" height="659" viewBox="0 0 666 659" fill="none" xmlns="http://www.w3.org/2000/svg">
<path d="M665.835 45.0247C662.403 67.1697 653.849 88.5322 638.994 105.274C609.868 139.775 577.495 171.19 542.496 199.705C487.695 246.136 431.065 290.411 375.04 335.342C337.312 364.087 298.78 391.765 260.398 419.608C242.472 436.039 224.88 456.9 197.652 453.774C159.591 443.628 172.351 394.771 192.019 372.774C221.674 335.088 253.308 298.979 285.562 263.496C364.819 175.881 509.536 2.12808 633.839 0C656.481 4.33183 666.914 22.6163 665.835 45.0247Z" fill="white"/>
<path d="M609.005 483.127C609.432 500.743 602.138 514.167 588.632 524.769C544.736 569.317 454.616 379.879 433.358 348.217C426.387 334.192 425.704 315.292 437.952 304.605C461.907 283.431 486.102 262.529 510.234 241.556C526.11 225.39 550.301 208.505 563.884 236.935C584.573 317.451 602.424 399.997 609.005 483.127Z" fill="white"/>
<path d="M135.645 36.4966C137.225 8.74745 172.747 -1.21922 195.742 5.89445C267.412 25.7225 338.87 47.9266 407.675 76.0391C421.634 84.3875 424.185 99.9058 412.854 111.533C384.962 139.967 355.554 166.932 328.302 196.007C319.002 205.885 313.895 207.418 302.682 199.957C290.059 191.557 277.601 182.717 266.086 172.881C235.087 141.598 138.663 76.6516 135.645 36.4966Z" fill="white"/>
<path d="M250.807 611.321C251.319 603.671 256.811 597.157 263.463 591.256C309.653 551.441 354.321 510.045 397.319 466.811C403.986 460.399 411.294 454.621 418.574 448.891C435.761 434.12 454.772 455.624 438.3 470.918C389.077 519.631 339.119 567.611 290.175 616.603C279.589 630.216 250.871 636.039 250.807 611.321Z" fill="white"/>
<path d="M182.451 180.464C144.479 232.634 93.9749 276.305 51.4866 325.328C43.2482 333.861 36.3807 344.566 25.5582 350.024C11.9482 357.98 -5.86235 341.705 1.87932 327.729C4.68307 322.082 9.20132 317.082 13.6906 312.512C52.9657 275.3 88.7024 234.644 126.354 195.834C139.652 184.434 173.321 146.88 182.451 180.464Z" fill="white"/>
<path d="M181.123 496.489C166.743 520.425 140.353 538.331 121.249 558.947C99.979 577.316 82.6632 601.591 57.6157 614.874C52.1207 617.403 46.3174 616.93 41.6965 612.338C31.7965 602.537 41.9957 589.305 49.254 581.526C82.8882 549.934 116.798 518.635 150.675 487.3C160.717 474.949 180.875 476.021 181.123 496.489Z" fill="white"/>
<path d="M330.597 466.517C326.884 536.664 249.795 500.403 260.657 446.603C264.534 430.983 281.894 423.726 292.931 413.448C300.843 407.288 309.632 409.762 317.743 412.603C328.607 418.881 326.933 452.893 330.597 466.517Z" fill="white"/>
<path d="M132.279 317.734C144.855 284.399 181.061 286.603 207.522 302.006C240.762 320.165 201.237 348.629 186.778 365.354C184.711 367.439 180.098 368.725 177.24 368.02C150.902 362.904 138.782 342.791 132.279 317.734Z" fill="white"/>
<path d="M442.648 658.393C422.427 659.386 417.785 639.444 430.238 627.68C437.19 621.265 444.14 614.845 450.952 608.283C465.727 594.05 480.397 579.71 495.157 565.464C500.936 559.31 511.122 556.526 517.222 563.009C523.847 569.006 521.364 579.195 515.239 585.068C499.872 601.761 484.446 618.398 469.063 635.077C462.237 643.444 451.911 654.606 442.648 658.393Z" fill="white"/>
<path d="M51.9191 144.79C34.1924 145.123 26.0916 127.548 36.4766 115.603C40.6024 110.867 45.4258 106.714 50.1116 102.493C61.9374 92.436 72.8416 81.0052 85.5391 72.0818C98.9691 63.9818 114.332 79.6118 106.334 92.9735C93.9633 109.189 78.1599 122.826 63.9208 137.427C60.0316 141.151 54.5566 143.221 51.9191 144.79Z" fill="white"/>
</svg>
