<svg width="698" height="733" viewBox="0 0 698 733" fill="none" xmlns="http://www.w3.org/2000/svg">
<path d="M464.22 465.268C427.096 342.727 407.606 214.831 413.302 86.6609C414.205 63.3625 416.409 40.1119 418.141 16.8486C418.94 6.12527 426.588 -0.929732 435.937 0.0994343C445.016 1.0986 450.699 9.2711 449.468 19.8744C429.445 188.798 451.827 366.118 519.73 522.537C528.13 539.637 540.248 554.896 544.895 573.679C544.376 574.165 543.856 574.652 543.337 575.138C556.777 575.398 570.514 574.584 583.772 576.387C598.505 578.663 602.755 593.057 592.629 603.962C567.038 623.993 536.789 638.393 506.445 649.749C479.422 659.062 450.958 659.166 422.71 658.595C371.26 657.113 319.518 655.85 268.384 649.904C238.558 645.921 214.933 629.698 195.418 607.237C187.519 598.145 179.649 589.026 171.662 580.01C165.997 573.615 165.31 565.044 170.168 558.578C174.844 552.353 182.803 551.653 190.747 553.943C225.545 561.358 261.747 561.691 297.114 565.346C366.882 569.362 454.062 576.787 524.061 576.387C459.732 515.458 356.303 470.447 275.174 529.038C253.405 543.281 237.875 566.814 218.396 533.718C121.698 361.137 253.515 183.422 380.519 69.515C386.87 63.7059 394.274 62.7192 400.207 66.7517C406.224 70.8409 408.262 77.9992 405.127 86.01C340.774 211.501 390.355 356.036 463.186 465.773C463.531 465.603 463.875 465.436 464.22 465.268ZM220.445 413.142C222.023 434.298 224.512 465.204 232.3 487.548C234.61 495.021 241.479 497.931 247.487 495.71C253.52 493.479 255.932 487.315 253.849 479.592C223.895 367.064 279.7 254.235 348.173 167.512C352.619 162.464 355.295 153.749 350.68 148.526C343.26 143.58 334.945 150.641 329.815 156.189C261.921 225.687 224.097 314.188 220.445 413.142Z" fill="white"/>
<path d="M427.952 712.314C363.995 727.818 331.822 748.409 267.631 712.881C217.531 685.902 176.187 741.336 105.082 709.079C69.6362 690.647 53.6704 698.92 21.8972 718.755C14.4581 723.112 7.94556 722.704 3.36223 717.521C-1.1461 712.422 -1.45027 704.786 4.4739 698.988C33.8621 670.233 65.3254 655.752 103.934 671.304C152.548 695.28 175.702 680.928 223.847 670.724C279.02 659.572 312.755 715.717 371.14 689.869C413.419 673.172 440.14 672.963 482.935 687.786C510.35 697.473 536.028 683.133 561.47 674.014C601.52 656.827 641.264 678.191 680.428 687.537C705.967 693.937 700.905 727.109 674.046 724.495C656.478 720.567 638.718 716.505 621.88 709.983C566.856 689.344 535.825 747.053 465.59 721.718C453.4 717.955 440.809 715.484 427.952 712.314Z" fill="white"/>
<path d="M220.446 413.143C224.09 314.208 261.931 225.671 329.816 156.19C334.935 150.654 343.29 143.526 350.683 148.528C355.264 153.833 352.636 162.427 348.173 167.513C279.709 254.213 223.89 367.092 253.851 479.594C255.934 487.316 253.521 493.481 247.489 495.712C241.48 497.933 234.612 495.023 232.301 487.551C224.514 465.231 222.014 434.298 220.446 413.143Z" fill="white"/>
</svg>
